Coordinates
version=1
nRows=54
nColumns=12
inDegrees=yes

Units are S.I. units (second, meters, Newtons, ...)
Angles are in degrees

endheader
time	SC_y	SC_z	SC_x	AC_y	AC_z	AC_x	GH_y	GH_z	GH_yy	EL_x	PS_y
       0.0              -13.74          9.293         0.6668          66.92         -6.026         -18.54          162.4         -5.404          150.2          55.58          38.87
   0.01612              -13.75          9.295          0.672          66.92         -6.024         -18.54          162.3         -5.395          150.2          55.59          38.86
   0.03224              -13.75          9.296         0.6776          66.91         -6.023         -18.53          162.3         -5.386          150.2          55.59          38.86
   0.04836              -13.75          9.298         0.6835           66.9         -6.021         -18.53          162.3         -5.376          150.1           55.6          38.86
   0.06448              -13.75            9.3         0.6897           66.9         -6.019         -18.53          162.3         -5.366          150.1          55.61          38.86
    0.0806              -13.75          9.302         0.6964          66.89         -6.017         -18.53          162.3         -5.354          150.0          55.62          38.85
   0.09671              -13.76          9.304         0.7035          66.88         -6.015         -18.53          162.3         -5.343          150.0          55.63          38.85
    0.1128              -13.76          9.307         0.7112          66.88         -6.013         -18.53          162.2          -5.33          150.0          55.64          38.84
     0.129              -13.76          9.309         0.7193          66.87         -6.011         -18.53          162.2         -5.316          149.9          55.65          38.84
    0.1451              -13.77          9.312         0.7281          66.86         -6.008         -18.53          162.2         -5.302          149.8          55.66          38.84
    0.1612              -13.77          9.315         0.7375          66.85         -6.006         -18.53          162.2         -5.286          149.8          55.67          38.83
    0.1773              -13.77          9.318         0.7477          66.84         -6.003         -18.53          162.1         -5.269          149.7          55.68          38.83
    0.1934              -13.78          9.321         0.7586          66.83           -6.0         -18.53          162.1         -5.251          149.7           55.7          38.82
    0.2095              -13.78          9.325         0.7704          66.82         -5.996         -18.53          162.1         -5.231          149.6          55.71          38.82
    0.2257              -13.79          9.329         0.7832           66.8         -5.993         -18.53          162.0          -5.21          149.5          55.73          38.81
    0.2418              -13.79          9.333          0.797          66.79         -5.989         -18.53          162.0         -5.187          149.4          55.75           38.8
    0.2579               -13.8          9.338          0.812          66.78         -5.984         -18.53          162.0         -5.162          149.3          55.77          38.79
     0.274              -13.81          9.343         0.8284          66.76          -5.98         -18.53          161.9         -5.134          149.2          55.79          38.79
    0.2901              -13.81          9.348         0.8463          66.74         -5.974         -18.53          161.9         -5.104          149.1          55.81          38.78
    0.3063              -13.82          9.354         0.8659          66.72         -5.969         -18.53          161.8         -5.072          149.0          55.84          38.77
    0.3224              -13.83          9.361         0.8875           66.7         -5.963         -18.53          161.8         -5.036          148.8          55.86          38.76
    0.3385              -13.84          9.368         0.9112          66.68         -5.956         -18.53          161.7         -4.996          148.7           55.9          38.75
    0.3546              -13.85          9.376         0.9373          66.65         -5.948         -18.52          161.6         -4.953          148.5          55.93          38.73
    0.3707              -13.86          9.385         0.9663          66.62          -5.94         -18.52          161.6         -4.904          148.4          55.97          38.72
    0.3869              -13.87          9.395         0.9985          66.59         -5.931         -18.52          161.5         -4.851          148.2          56.01           38.7
     0.403              -13.89          9.406          1.034          66.55         -5.921         -18.52          161.4         -4.791          147.9          56.05          38.68
    0.4191               -13.9          9.418          1.075          66.51         -5.909         -18.52          161.3         -4.723          147.7          56.11          38.66
    0.4352              -13.92          9.432           1.12          66.47         -5.896         -18.52          161.1         -4.648          147.4          56.17          38.64
    0.4513              -13.94          9.448          1.171          66.42         -5.881         -18.52          161.0         -4.563          147.1          56.23          38.62
    0.4675              -13.96          9.465          1.229          66.36         -5.865         -18.51          160.9         -4.466          146.7          56.31          38.59
    0.4836              -13.99          9.486          1.296          66.29         -5.846         -18.51          160.7         -4.355          146.3          56.39          38.56
    0.4997              -14.02          9.509          1.372          66.22         -5.824         -18.51          160.5         -4.228          145.8          56.49          38.52
    0.5158              -14.05          9.536           1.46          66.13         -5.799          -18.5          160.2         -4.081          145.3           56.6          38.47
    0.5319              -14.09          9.567          1.562          66.03         -5.769          -18.5          160.0         -3.911          144.6          56.74          38.42
     0.548              -14.13          9.604          1.682          65.91         -5.735          -18.5          159.6         -3.712          143.9          56.89          38.36
    0.5642              -14.19          9.647          1.822          65.77         -5.695         -18.49          159.3         -3.477          143.0          57.07          38.29
    0.5803              -14.25          9.698           1.99           65.6         -5.647         -18.48          158.8         -3.197          141.9          57.29          38.21
    0.5964              -14.33           9.76          2.191           65.4         -5.589         -18.48          158.3         -2.863          140.7          57.55          38.11
    0.6125              -14.42          9.834          2.433          65.15          -5.52         -18.47          157.6         -2.458          139.1          57.86          37.99
    0.6286              -14.54          9.925           2.73          64.86         -5.435         -18.46          156.8         -1.963          137.3          58.25          37.84
    0.6448              -14.68          10.04          3.096          64.49          -5.33         -18.44          155.9         -1.352          135.0          58.72          37.66
    0.6609              -14.86          10.18          3.553          64.04         -5.199         -18.42          154.7        -0.5909          132.1          59.31          37.44
     0.677              -15.08          10.35          4.128          63.46         -5.034          -18.4          153.1         0.3683          128.5          60.05          37.15
    0.6931              -15.36          10.58          4.859          62.73         -4.825         -18.37          151.2          1.588          123.9           61.0          36.79
    0.7092              -15.72          10.86          5.795          61.79         -4.557         -18.34          148.7          3.148          118.0          62.21          36.32
    0.7254              -16.18          11.23          6.996          60.59         -4.213         -18.29          145.5          5.151          110.5          63.76          35.73
    0.7415              -16.77           11.7           8.53          59.06         -3.773         -18.23          141.4          7.709          100.8          65.74          34.97
    0.7576              -17.52          12.29          10.46          57.13          -3.22         -18.16          136.2          10.93          88.72          68.23          34.01
    0.7737              -18.42          13.01          12.81          54.78         -2.547         -18.07          129.9          14.85          73.96          71.27          32.85
    0.7898              -19.47          13.85          15.53          52.05         -1.766         -17.96          122.7          19.39          56.84          74.79           31.5
     0.806              -20.61          14.75          18.48          49.11         -0.921         -17.85          114.8          24.31          38.31           78.6          30.03
    0.8221              -21.75          15.65          21.43          46.16       -0.07568         -17.73          106.9          29.23          19.78          82.41          28.57
    0.8382               -22.8          16.49          24.16          43.43          0.705         -17.63          99.65          33.77          2.663          85.94          27.22
    0.8543               -23.7          17.21          26.51          41.08          1.378         -17.54          93.37          37.69          -12.1          88.97          26.05
